<mxfile host="Electron" agent="Mozilla/5.0 (Macintosh; Intel Mac OS X 10_15_7) AppleWebKit/537.36 (KHTML, like Gecko) draw.io/28.1.2 Chrome/138.0.7204.243 Electron/37.4.0 Safari/537.36" version="28.1.2">
  <diagram name="Page-1" id="_SwwrLTQsyD0Fj5lO8iF">
    <mxGraphModel dx="1298" dy="839" grid="1" gridSize="10" guides="1" tooltips="1" connect="1" arrows="1" fold="1" page="1" pageScale="1" pageWidth="827" pageHeight="1169" math="0" shadow="0">
      <root>
        <mxCell id="0" />
        <mxCell id="1" parent="0" />
        <mxCell id="7GvROdGBeF6tqrjPkgx6-1" value="&lt;h1 style=&quot;margin-top: 0px;&quot;&gt;Application e-commerce&lt;/h1&gt;&lt;p&gt;Diagramme de composants&lt;br&gt;v2 - clean avec BDD&lt;/p&gt;" style="text;html=1;whiteSpace=wrap;overflow=hidden;rounded=0;align=center;" parent="1" vertex="1">
          <mxGeometry x="1093" y="10" width="296" height="100" as="geometry" />
        </mxCell>
        <mxCell id="7GvROdGBeF6tqrjPkgx6-2" value="&lt;b&gt;tp-e-commerce&lt;/b&gt;" style="verticalAlign=top;align=left;spacingTop=8;spacingLeft=2;spacingRight=12;shape=cube;size=10;direction=south;fontStyle=4;html=1;whiteSpace=wrap;" parent="1" vertex="1">
          <mxGeometry x="30" y="123" width="2420" height="1747" as="geometry" />
        </mxCell>
        <mxCell id="7GvROdGBeF6tqrjPkgx6-5" value="&lt;b&gt;products&lt;/b&gt;" style="shape=umlFrame;whiteSpace=wrap;html=1;pointerEvents=0;width=90;height=30;fillColor=#dae8fc;strokeColor=#6c8ebf;" parent="1" vertex="1">
          <mxGeometry x="70" y="180" width="1140" height="800" as="geometry" />
        </mxCell>
        <mxCell id="7GvROdGBeF6tqrjPkgx6-41" value="&lt;b&gt;application&lt;/b&gt;" style="shape=umlFrame;whiteSpace=wrap;html=1;pointerEvents=0;width=86;height=30;fillColor=#dae8fc;strokeColor=#6c8ebf;" parent="1" vertex="1">
          <mxGeometry x="94" y="230" width="496" height="360" as="geometry" />
        </mxCell>
        <mxCell id="7GvROdGBeF6tqrjPkgx6-44" value="&lt;b&gt;usecases&lt;/b&gt;" style="shape=umlFrame;whiteSpace=wrap;html=1;pointerEvents=0;width=90;height=30;fillColor=#dae8fc;strokeColor=#6c8ebf;" parent="1" vertex="1">
          <mxGeometry x="120" y="280" width="210" height="130" as="geometry" />
        </mxCell>
        <mxCell id="7GvROdGBeF6tqrjPkgx6-53" value="ListProducts" style="html=1;dropTarget=0;whiteSpace=wrap;" parent="1" vertex="1">
          <mxGeometry x="135" y="330" width="180" height="60" as="geometry" />
        </mxCell>
        <mxCell id="7GvROdGBeF6tqrjPkgx6-54" value="" style="shape=module;jettyWidth=8;jettyHeight=4;" parent="7GvROdGBeF6tqrjPkgx6-53" vertex="1">
          <mxGeometry x="1" width="20" height="20" relative="1" as="geometry">
            <mxPoint x="-27" y="7" as="offset" />
          </mxGeometry>
        </mxCell>
        <mxCell id="OjcOxmT1LdW2MqjVC4tX-5" value="&lt;b&gt;domain&lt;/b&gt;" style="shape=umlFrame;whiteSpace=wrap;html=1;pointerEvents=0;width=86;height=30;fillColor=#dae8fc;strokeColor=#6c8ebf;" parent="1" vertex="1">
          <mxGeometry x="640" y="230" width="540" height="360" as="geometry" />
        </mxCell>
        <mxCell id="OjcOxmT1LdW2MqjVC4tX-6" value="&lt;b&gt;entities&lt;/b&gt;" style="shape=umlFrame;whiteSpace=wrap;html=1;pointerEvents=0;width=80;height=30;fillColor=#dae8fc;strokeColor=#6c8ebf;" parent="1" vertex="1">
          <mxGeometry x="670" y="280" width="210" height="130" as="geometry" />
        </mxCell>
        <mxCell id="OjcOxmT1LdW2MqjVC4tX-7" value="Product" style="html=1;dropTarget=0;whiteSpace=wrap;" parent="1" vertex="1">
          <mxGeometry x="685" y="330" width="180" height="60" as="geometry" />
        </mxCell>
        <mxCell id="OjcOxmT1LdW2MqjVC4tX-8" value="" style="shape=module;jettyWidth=8;jettyHeight=4;" parent="OjcOxmT1LdW2MqjVC4tX-7" vertex="1">
          <mxGeometry x="1" width="20" height="20" relative="1" as="geometry">
            <mxPoint x="-27" y="7" as="offset" />
          </mxGeometry>
        </mxCell>
        <mxCell id="OjcOxmT1LdW2MqjVC4tX-9" value="&lt;b&gt;value-objects&lt;/b&gt;" style="shape=umlFrame;whiteSpace=wrap;html=1;pointerEvents=0;width=100;height=30;fillColor=#dae8fc;strokeColor=#6c8ebf;" parent="1" vertex="1">
          <mxGeometry x="930" y="280" width="210" height="210" as="geometry" />
        </mxCell>
        <mxCell id="OjcOxmT1LdW2MqjVC4tX-10" value="ProductName" style="html=1;dropTarget=0;whiteSpace=wrap;" parent="1" vertex="1">
          <mxGeometry x="945" y="330" width="180" height="60" as="geometry" />
        </mxCell>
        <mxCell id="OjcOxmT1LdW2MqjVC4tX-11" value="" style="shape=module;jettyWidth=8;jettyHeight=4;" parent="OjcOxmT1LdW2MqjVC4tX-10" vertex="1">
          <mxGeometry x="1" width="20" height="20" relative="1" as="geometry">
            <mxPoint x="-27" y="7" as="offset" />
          </mxGeometry>
        </mxCell>
        <mxCell id="OjcOxmT1LdW2MqjVC4tX-12" value="&lt;b&gt;interface&lt;/b&gt;" style="shape=umlFrame;whiteSpace=wrap;html=1;pointerEvents=0;width=96;height=30;fillColor=#dae8fc;strokeColor=#6c8ebf;" parent="1" vertex="1">
          <mxGeometry x="94" y="620" width="806" height="330" as="geometry" />
        </mxCell>
        <mxCell id="OjcOxmT1LdW2MqjVC4tX-13" value="&lt;b&gt;adapters&lt;/b&gt;" style="shape=umlFrame;whiteSpace=wrap;html=1;pointerEvents=0;width=100;height=30;fillColor=#dae8fc;strokeColor=#6c8ebf;" parent="1" vertex="1">
          <mxGeometry x="120" y="670" width="750" height="250" as="geometry" />
        </mxCell>
        <mxCell id="OjcOxmT1LdW2MqjVC4tX-14" value="&lt;b&gt;http&lt;/b&gt;" style="shape=umlFrame;whiteSpace=wrap;html=1;pointerEvents=0;width=100;height=30;fillColor=#dae8fc;strokeColor=#6c8ebf;" parent="1" vertex="1">
          <mxGeometry x="135" y="715" width="475" height="190" as="geometry" />
        </mxCell>
        <mxCell id="OjcOxmT1LdW2MqjVC4tX-15" value="&lt;b&gt;repositories&lt;/b&gt;" style="shape=umlFrame;whiteSpace=wrap;html=1;pointerEvents=0;width=100;height=30;fillColor=#dae8fc;strokeColor=#6c8ebf;" parent="1" vertex="1">
          <mxGeometry x="640" y="715" width="210" height="130" as="geometry" />
        </mxCell>
        <mxCell id="OjcOxmT1LdW2MqjVC4tX-16" value="ProductRepository" style="html=1;dropTarget=0;whiteSpace=wrap;" parent="1" vertex="1">
          <mxGeometry x="655" y="765" width="180" height="60" as="geometry" />
        </mxCell>
        <mxCell id="OjcOxmT1LdW2MqjVC4tX-17" value="" style="shape=module;jettyWidth=8;jettyHeight=4;" parent="OjcOxmT1LdW2MqjVC4tX-16" vertex="1">
          <mxGeometry x="1" width="20" height="20" relative="1" as="geometry">
            <mxPoint x="-27" y="7" as="offset" />
          </mxGeometry>
        </mxCell>
        <mxCell id="OjcOxmT1LdW2MqjVC4tX-18" value="&lt;b&gt;controllers&lt;/b&gt;" style="shape=umlFrame;whiteSpace=wrap;html=1;pointerEvents=0;width=100;height=30;fillColor=#dae8fc;strokeColor=#6c8ebf;" parent="1" vertex="1">
          <mxGeometry x="150" y="760" width="210" height="130" as="geometry" />
        </mxCell>
        <mxCell id="OjcOxmT1LdW2MqjVC4tX-19" value="ProductsController" style="html=1;dropTarget=0;whiteSpace=wrap;" parent="1" vertex="1">
          <mxGeometry x="165" y="810" width="180" height="60" as="geometry" />
        </mxCell>
        <mxCell id="OjcOxmT1LdW2MqjVC4tX-20" value="" style="shape=module;jettyWidth=8;jettyHeight=4;" parent="OjcOxmT1LdW2MqjVC4tX-19" vertex="1">
          <mxGeometry x="1" width="20" height="20" relative="1" as="geometry">
            <mxPoint x="-27" y="7" as="offset" />
          </mxGeometry>
        </mxCell>
        <mxCell id="OjcOxmT1LdW2MqjVC4tX-21" value="&lt;b&gt;routes&lt;/b&gt;" style="shape=umlFrame;whiteSpace=wrap;html=1;pointerEvents=0;width=100;height=30;fillColor=#dae8fc;strokeColor=#6c8ebf;" parent="1" vertex="1">
          <mxGeometry x="380" y="760" width="210" height="130" as="geometry" />
        </mxCell>
        <mxCell id="OjcOxmT1LdW2MqjVC4tX-22" value="ProductsRoutes" style="html=1;dropTarget=0;whiteSpace=wrap;" parent="1" vertex="1">
          <mxGeometry x="395" y="810" width="180" height="60" as="geometry" />
        </mxCell>
        <mxCell id="OjcOxmT1LdW2MqjVC4tX-23" value="" style="shape=module;jettyWidth=8;jettyHeight=4;" parent="OjcOxmT1LdW2MqjVC4tX-22" vertex="1">
          <mxGeometry x="1" width="20" height="20" relative="1" as="geometry">
            <mxPoint x="-27" y="7" as="offset" />
          </mxGeometry>
        </mxCell>
        <mxCell id="OjcOxmT1LdW2MqjVC4tX-24" value="&lt;b&gt;presentation&lt;/b&gt;" style="shape=umlFrame;whiteSpace=wrap;html=1;pointerEvents=0;width=96;height=30;fillColor=#dae8fc;strokeColor=#6c8ebf;" parent="1" vertex="1">
          <mxGeometry x="930" y="620" width="250" height="200" as="geometry" />
        </mxCell>
        <mxCell id="OjcOxmT1LdW2MqjVC4tX-25" value="&lt;b&gt;dto&lt;/b&gt;" style="shape=umlFrame;whiteSpace=wrap;html=1;pointerEvents=0;width=100;height=30;fillColor=#dae8fc;strokeColor=#6c8ebf;" parent="1" vertex="1">
          <mxGeometry x="950" y="670" width="210" height="130" as="geometry" />
        </mxCell>
        <mxCell id="OjcOxmT1LdW2MqjVC4tX-26" value="ProductDto" style="html=1;dropTarget=0;whiteSpace=wrap;" parent="1" vertex="1">
          <mxGeometry x="965" y="715" width="180" height="60" as="geometry" />
        </mxCell>
        <mxCell id="OjcOxmT1LdW2MqjVC4tX-27" value="" style="shape=module;jettyWidth=8;jettyHeight=4;" parent="OjcOxmT1LdW2MqjVC4tX-26" vertex="1">
          <mxGeometry x="1" width="20" height="20" relative="1" as="geometry">
            <mxPoint x="-27" y="7" as="offset" />
          </mxGeometry>
        </mxCell>
        <mxCell id="OjcOxmT1LdW2MqjVC4tX-28" value="&lt;b&gt;cart&lt;/b&gt;" style="shape=umlFrame;whiteSpace=wrap;html=1;pointerEvents=0;width=90;height=30;fillColor=#ffe6cc;strokeColor=#d79b00;" parent="1" vertex="1">
          <mxGeometry x="70" y="1030" width="1140" height="800" as="geometry" />
        </mxCell>
        <mxCell id="OjcOxmT1LdW2MqjVC4tX-29" value="&lt;b&gt;application&lt;/b&gt;" style="shape=umlFrame;whiteSpace=wrap;html=1;pointerEvents=0;width=86;height=30;fillColor=#ffe6cc;strokeColor=#d79b00;" parent="1" vertex="1">
          <mxGeometry x="94" y="1080" width="496" height="360" as="geometry" />
        </mxCell>
        <mxCell id="OjcOxmT1LdW2MqjVC4tX-30" value="&lt;b&gt;services&lt;/b&gt;" style="shape=umlFrame;whiteSpace=wrap;html=1;pointerEvents=0;width=80;height=30;fillColor=#ffe6cc;strokeColor=#d79b00;" parent="1" vertex="1">
          <mxGeometry x="360" y="1130" width="210" height="130" as="geometry" />
        </mxCell>
        <mxCell id="OjcOxmT1LdW2MqjVC4tX-31" value="&lt;b&gt;usecases&lt;/b&gt;" style="shape=umlFrame;whiteSpace=wrap;html=1;pointerEvents=0;width=90;height=30;fillColor=#ffe6cc;strokeColor=#d79b00;" parent="1" vertex="1">
          <mxGeometry x="120" y="1130" width="210" height="280" as="geometry" />
        </mxCell>
        <mxCell id="OjcOxmT1LdW2MqjVC4tX-32" value="CartPricing" style="html=1;dropTarget=0;whiteSpace=wrap;" parent="1" vertex="1">
          <mxGeometry x="375" y="1180" width="180" height="60" as="geometry" />
        </mxCell>
        <mxCell id="OjcOxmT1LdW2MqjVC4tX-33" value="" style="shape=module;jettyWidth=8;jettyHeight=4;" parent="OjcOxmT1LdW2MqjVC4tX-32" vertex="1">
          <mxGeometry x="1" width="20" height="20" relative="1" as="geometry">
            <mxPoint x="-27" y="7" as="offset" />
          </mxGeometry>
        </mxCell>
        <mxCell id="OjcOxmT1LdW2MqjVC4tX-34" value="AddToCart" style="html=1;dropTarget=0;whiteSpace=wrap;" parent="1" vertex="1">
          <mxGeometry x="135" y="1180" width="180" height="60" as="geometry" />
        </mxCell>
        <mxCell id="OjcOxmT1LdW2MqjVC4tX-35" value="" style="shape=module;jettyWidth=8;jettyHeight=4;" parent="OjcOxmT1LdW2MqjVC4tX-34" vertex="1">
          <mxGeometry x="1" width="20" height="20" relative="1" as="geometry">
            <mxPoint x="-27" y="7" as="offset" />
          </mxGeometry>
        </mxCell>
        <mxCell id="OjcOxmT1LdW2MqjVC4tX-36" value="RemoveFromCart" style="html=1;dropTarget=0;whiteSpace=wrap;" parent="1" vertex="1">
          <mxGeometry x="135" y="1255" width="180" height="60" as="geometry" />
        </mxCell>
        <mxCell id="OjcOxmT1LdW2MqjVC4tX-37" value="" style="shape=module;jettyWidth=8;jettyHeight=4;" parent="OjcOxmT1LdW2MqjVC4tX-36" vertex="1">
          <mxGeometry x="1" width="20" height="20" relative="1" as="geometry">
            <mxPoint x="-27" y="7" as="offset" />
          </mxGeometry>
        </mxCell>
        <mxCell id="OjcOxmT1LdW2MqjVC4tX-38" value="ClearCart" style="html=1;dropTarget=0;whiteSpace=wrap;" parent="1" vertex="1">
          <mxGeometry x="135" y="1330" width="180" height="60" as="geometry" />
        </mxCell>
        <mxCell id="OjcOxmT1LdW2MqjVC4tX-39" value="" style="shape=module;jettyWidth=8;jettyHeight=4;" parent="OjcOxmT1LdW2MqjVC4tX-38" vertex="1">
          <mxGeometry x="1" width="20" height="20" relative="1" as="geometry">
            <mxPoint x="-27" y="7" as="offset" />
          </mxGeometry>
        </mxCell>
        <mxCell id="OjcOxmT1LdW2MqjVC4tX-40" value="&lt;b&gt;domain&lt;/b&gt;" style="shape=umlFrame;whiteSpace=wrap;html=1;pointerEvents=0;width=86;height=30;fillColor=#ffe6cc;strokeColor=#d79b00;" parent="1" vertex="1">
          <mxGeometry x="640" y="1080" width="540" height="360" as="geometry" />
        </mxCell>
        <mxCell id="OjcOxmT1LdW2MqjVC4tX-41" value="&lt;b&gt;entities&lt;/b&gt;" style="shape=umlFrame;whiteSpace=wrap;html=1;pointerEvents=0;width=80;height=30;fillColor=#ffe6cc;strokeColor=#d79b00;" parent="1" vertex="1">
          <mxGeometry x="670" y="1130" width="210" height="130" as="geometry" />
        </mxCell>
        <mxCell id="OjcOxmT1LdW2MqjVC4tX-42" value="Cart" style="html=1;dropTarget=0;whiteSpace=wrap;" parent="1" vertex="1">
          <mxGeometry x="685" y="1180" width="180" height="60" as="geometry" />
        </mxCell>
        <mxCell id="OjcOxmT1LdW2MqjVC4tX-43" value="" style="shape=module;jettyWidth=8;jettyHeight=4;" parent="OjcOxmT1LdW2MqjVC4tX-42" vertex="1">
          <mxGeometry x="1" width="20" height="20" relative="1" as="geometry">
            <mxPoint x="-27" y="7" as="offset" />
          </mxGeometry>
        </mxCell>
        <mxCell id="OjcOxmT1LdW2MqjVC4tX-44" value="&lt;b&gt;value-objects&lt;/b&gt;" style="shape=umlFrame;whiteSpace=wrap;html=1;pointerEvents=0;width=100;height=30;fillColor=#ffe6cc;strokeColor=#d79b00;" parent="1" vertex="1">
          <mxGeometry x="670" y="1280" width="210" height="130" as="geometry" />
        </mxCell>
        <mxCell id="OjcOxmT1LdW2MqjVC4tX-45" value="Quantity" style="html=1;dropTarget=0;whiteSpace=wrap;" parent="1" vertex="1">
          <mxGeometry x="685" y="1330" width="180" height="60" as="geometry" />
        </mxCell>
        <mxCell id="OjcOxmT1LdW2MqjVC4tX-46" value="" style="shape=module;jettyWidth=8;jettyHeight=4;" parent="OjcOxmT1LdW2MqjVC4tX-45" vertex="1">
          <mxGeometry x="1" width="20" height="20" relative="1" as="geometry">
            <mxPoint x="-27" y="7" as="offset" />
          </mxGeometry>
        </mxCell>
        <mxCell id="OjcOxmT1LdW2MqjVC4tX-47" value="&lt;b&gt;interface&lt;/b&gt;" style="shape=umlFrame;whiteSpace=wrap;html=1;pointerEvents=0;width=96;height=30;fillColor=#ffe6cc;strokeColor=#d79b00;" parent="1" vertex="1">
          <mxGeometry x="94" y="1470" width="806" height="330" as="geometry" />
        </mxCell>
        <mxCell id="OjcOxmT1LdW2MqjVC4tX-48" value="&lt;b&gt;adapters&lt;/b&gt;" style="shape=umlFrame;whiteSpace=wrap;html=1;pointerEvents=0;width=100;height=30;fillColor=#ffe6cc;strokeColor=#d79b00;" parent="1" vertex="1">
          <mxGeometry x="120" y="1520" width="750" height="250" as="geometry" />
        </mxCell>
        <mxCell id="OjcOxmT1LdW2MqjVC4tX-49" value="&lt;b&gt;http&lt;/b&gt;" style="shape=umlFrame;whiteSpace=wrap;html=1;pointerEvents=0;width=100;height=30;fillColor=#ffe6cc;strokeColor=#d79b00;" parent="1" vertex="1">
          <mxGeometry x="135" y="1565" width="475" height="190" as="geometry" />
        </mxCell>
        <mxCell id="OjcOxmT1LdW2MqjVC4tX-50" value="&lt;b&gt;repositories&lt;/b&gt;" style="shape=umlFrame;whiteSpace=wrap;html=1;pointerEvents=0;width=100;height=30;fillColor=#ffe6cc;strokeColor=#d79b00;" parent="1" vertex="1">
          <mxGeometry x="640" y="1565" width="210" height="130" as="geometry" />
        </mxCell>
        <mxCell id="OjcOxmT1LdW2MqjVC4tX-51" value="CartRepository" style="html=1;dropTarget=0;whiteSpace=wrap;" parent="1" vertex="1">
          <mxGeometry x="655" y="1615" width="180" height="60" as="geometry" />
        </mxCell>
        <mxCell id="OjcOxmT1LdW2MqjVC4tX-52" value="" style="shape=module;jettyWidth=8;jettyHeight=4;" parent="OjcOxmT1LdW2MqjVC4tX-51" vertex="1">
          <mxGeometry x="1" width="20" height="20" relative="1" as="geometry">
            <mxPoint x="-27" y="7" as="offset" />
          </mxGeometry>
        </mxCell>
        <mxCell id="OjcOxmT1LdW2MqjVC4tX-53" value="&lt;b&gt;controllers&lt;/b&gt;" style="shape=umlFrame;whiteSpace=wrap;html=1;pointerEvents=0;width=100;height=30;fillColor=#ffe6cc;strokeColor=#d79b00;" parent="1" vertex="1">
          <mxGeometry x="150" y="1610" width="210" height="130" as="geometry" />
        </mxCell>
        <mxCell id="OjcOxmT1LdW2MqjVC4tX-54" value="CartController" style="html=1;dropTarget=0;whiteSpace=wrap;" parent="1" vertex="1">
          <mxGeometry x="165" y="1660" width="180" height="60" as="geometry" />
        </mxCell>
        <mxCell id="OjcOxmT1LdW2MqjVC4tX-55" value="" style="shape=module;jettyWidth=8;jettyHeight=4;" parent="OjcOxmT1LdW2MqjVC4tX-54" vertex="1">
          <mxGeometry x="1" width="20" height="20" relative="1" as="geometry">
            <mxPoint x="-27" y="7" as="offset" />
          </mxGeometry>
        </mxCell>
        <mxCell id="OjcOxmT1LdW2MqjVC4tX-56" value="&lt;b&gt;routes&lt;/b&gt;" style="shape=umlFrame;whiteSpace=wrap;html=1;pointerEvents=0;width=100;height=30;fillColor=#ffe6cc;strokeColor=#d79b00;" parent="1" vertex="1">
          <mxGeometry x="380" y="1610" width="210" height="130" as="geometry" />
        </mxCell>
        <mxCell id="OjcOxmT1LdW2MqjVC4tX-57" value="CartRoutes" style="html=1;dropTarget=0;whiteSpace=wrap;" parent="1" vertex="1">
          <mxGeometry x="395" y="1660" width="180" height="60" as="geometry" />
        </mxCell>
        <mxCell id="OjcOxmT1LdW2MqjVC4tX-58" value="" style="shape=module;jettyWidth=8;jettyHeight=4;" parent="OjcOxmT1LdW2MqjVC4tX-57" vertex="1">
          <mxGeometry x="1" width="20" height="20" relative="1" as="geometry">
            <mxPoint x="-27" y="7" as="offset" />
          </mxGeometry>
        </mxCell>
        <mxCell id="OjcOxmT1LdW2MqjVC4tX-59" value="&lt;b&gt;presentation&lt;/b&gt;" style="shape=umlFrame;whiteSpace=wrap;html=1;pointerEvents=0;width=96;height=30;fillColor=#ffe6cc;strokeColor=#d79b00;" parent="1" vertex="1">
          <mxGeometry x="930" y="1470" width="250" height="200" as="geometry" />
        </mxCell>
        <mxCell id="OjcOxmT1LdW2MqjVC4tX-60" value="&lt;b&gt;dto&lt;/b&gt;" style="shape=umlFrame;whiteSpace=wrap;html=1;pointerEvents=0;width=100;height=30;fillColor=#ffe6cc;strokeColor=#d79b00;" parent="1" vertex="1">
          <mxGeometry x="950" y="1520" width="210" height="130" as="geometry" />
        </mxCell>
        <mxCell id="OjcOxmT1LdW2MqjVC4tX-61" value="CartDto" style="html=1;dropTarget=0;whiteSpace=wrap;" parent="1" vertex="1">
          <mxGeometry x="965" y="1565" width="180" height="60" as="geometry" />
        </mxCell>
        <mxCell id="OjcOxmT1LdW2MqjVC4tX-62" value="" style="shape=module;jettyWidth=8;jettyHeight=4;" parent="OjcOxmT1LdW2MqjVC4tX-61" vertex="1">
          <mxGeometry x="1" width="20" height="20" relative="1" as="geometry">
            <mxPoint x="-27" y="7" as="offset" />
          </mxGeometry>
        </mxCell>
        <mxCell id="OjcOxmT1LdW2MqjVC4tX-63" value="Sku" style="html=1;dropTarget=0;whiteSpace=wrap;" parent="1" vertex="1">
          <mxGeometry x="945" y="410" width="180" height="60" as="geometry" />
        </mxCell>
        <mxCell id="OjcOxmT1LdW2MqjVC4tX-64" value="" style="shape=module;jettyWidth=8;jettyHeight=4;" parent="OjcOxmT1LdW2MqjVC4tX-63" vertex="1">
          <mxGeometry x="1" width="20" height="20" relative="1" as="geometry">
            <mxPoint x="-27" y="7" as="offset" />
          </mxGeometry>
        </mxCell>
        <mxCell id="OjcOxmT1LdW2MqjVC4tX-65" value="&lt;b&gt;orders&lt;/b&gt;" style="shape=umlFrame;whiteSpace=wrap;html=1;pointerEvents=0;width=90;height=30;fillColor=#d5e8d4;strokeColor=#82b366;" parent="1" vertex="1">
          <mxGeometry x="1250" y="1030" width="1140" height="800" as="geometry" />
        </mxCell>
        <mxCell id="OjcOxmT1LdW2MqjVC4tX-66" value="&lt;b&gt;application&lt;/b&gt;" style="shape=umlFrame;whiteSpace=wrap;html=1;pointerEvents=0;width=86;height=30;fillColor=#d5e8d4;strokeColor=#82b366;" parent="1" vertex="1">
          <mxGeometry x="1274" y="1080" width="496" height="360" as="geometry" />
        </mxCell>
        <mxCell id="OjcOxmT1LdW2MqjVC4tX-68" value="&lt;b&gt;usecases&lt;/b&gt;" style="shape=umlFrame;whiteSpace=wrap;html=1;pointerEvents=0;width=90;height=30;fillColor=#d5e8d4;strokeColor=#82b366;" parent="1" vertex="1">
          <mxGeometry x="1300" y="1130" width="210" height="280" as="geometry" />
        </mxCell>
        <mxCell id="OjcOxmT1LdW2MqjVC4tX-71" value="CheckoutOrder" style="html=1;dropTarget=0;whiteSpace=wrap;fillColor=none;strokeColor=default;" parent="1" vertex="1">
          <mxGeometry x="1315" y="1180" width="180" height="60" as="geometry" />
        </mxCell>
        <mxCell id="OjcOxmT1LdW2MqjVC4tX-72" value="" style="shape=module;jettyWidth=8;jettyHeight=4;" parent="OjcOxmT1LdW2MqjVC4tX-71" vertex="1">
          <mxGeometry x="1" width="20" height="20" relative="1" as="geometry">
            <mxPoint x="-27" y="7" as="offset" />
          </mxGeometry>
        </mxCell>
        <mxCell id="OjcOxmT1LdW2MqjVC4tX-73" value="GetOrders" style="html=1;dropTarget=0;whiteSpace=wrap;fillColor=none;strokeColor=default;" parent="1" vertex="1">
          <mxGeometry x="1315" y="1255" width="180" height="60" as="geometry" />
        </mxCell>
        <mxCell id="OjcOxmT1LdW2MqjVC4tX-74" value="" style="shape=module;jettyWidth=8;jettyHeight=4;" parent="OjcOxmT1LdW2MqjVC4tX-73" vertex="1">
          <mxGeometry x="1" width="20" height="20" relative="1" as="geometry">
            <mxPoint x="-27" y="7" as="offset" />
          </mxGeometry>
        </mxCell>
        <mxCell id="OjcOxmT1LdW2MqjVC4tX-75" value="GetOrderDetails" style="html=1;dropTarget=0;whiteSpace=wrap;fillColor=none;strokeColor=default;" parent="1" vertex="1">
          <mxGeometry x="1315" y="1330" width="180" height="60" as="geometry" />
        </mxCell>
        <mxCell id="OjcOxmT1LdW2MqjVC4tX-76" value="" style="shape=module;jettyWidth=8;jettyHeight=4;" parent="OjcOxmT1LdW2MqjVC4tX-75" vertex="1">
          <mxGeometry x="1" width="20" height="20" relative="1" as="geometry">
            <mxPoint x="-27" y="7" as="offset" />
          </mxGeometry>
        </mxCell>
        <mxCell id="OjcOxmT1LdW2MqjVC4tX-77" value="&lt;b&gt;domain&lt;/b&gt;" style="shape=umlFrame;whiteSpace=wrap;html=1;pointerEvents=0;width=86;height=30;fillColor=#d5e8d4;strokeColor=#82b366;" parent="1" vertex="1">
          <mxGeometry x="1820" y="1080" width="540" height="360" as="geometry" />
        </mxCell>
        <mxCell id="OjcOxmT1LdW2MqjVC4tX-78" value="&lt;b&gt;entities&lt;/b&gt;" style="shape=umlFrame;whiteSpace=wrap;html=1;pointerEvents=0;width=80;height=30;fillColor=#d5e8d4;strokeColor=#82b366;" parent="1" vertex="1">
          <mxGeometry x="1850" y="1130" width="210" height="130" as="geometry" />
        </mxCell>
        <mxCell id="OjcOxmT1LdW2MqjVC4tX-79" value="Order" style="html=1;dropTarget=0;whiteSpace=wrap;fillColor=none;strokeColor=default;" parent="1" vertex="1">
          <mxGeometry x="1865" y="1180" width="180" height="60" as="geometry" />
        </mxCell>
        <mxCell id="OjcOxmT1LdW2MqjVC4tX-80" value="" style="shape=module;jettyWidth=8;jettyHeight=4;" parent="OjcOxmT1LdW2MqjVC4tX-79" vertex="1">
          <mxGeometry x="1" width="20" height="20" relative="1" as="geometry">
            <mxPoint x="-27" y="7" as="offset" />
          </mxGeometry>
        </mxCell>
        <mxCell id="OjcOxmT1LdW2MqjVC4tX-81" value="&lt;b&gt;value-objects&lt;/b&gt;" style="shape=umlFrame;whiteSpace=wrap;html=1;pointerEvents=0;width=100;height=30;fillColor=#d5e8d4;strokeColor=#82b366;" parent="1" vertex="1">
          <mxGeometry x="2110" y="1130" width="210" height="290" as="geometry" />
        </mxCell>
        <mxCell id="OjcOxmT1LdW2MqjVC4tX-82" value="OrderId" style="html=1;dropTarget=0;whiteSpace=wrap;fillColor=none;strokeColor=default;" parent="1" vertex="1">
          <mxGeometry x="2125" y="1180" width="180" height="60" as="geometry" />
        </mxCell>
        <mxCell id="OjcOxmT1LdW2MqjVC4tX-83" value="" style="shape=module;jettyWidth=8;jettyHeight=4;" parent="OjcOxmT1LdW2MqjVC4tX-82" vertex="1">
          <mxGeometry x="1" width="20" height="20" relative="1" as="geometry">
            <mxPoint x="-27" y="7" as="offset" />
          </mxGeometry>
        </mxCell>
        <mxCell id="OjcOxmT1LdW2MqjVC4tX-84" value="&lt;b&gt;interface&lt;/b&gt;" style="shape=umlFrame;whiteSpace=wrap;html=1;pointerEvents=0;width=96;height=30;fillColor=#d5e8d4;strokeColor=#82b366;" parent="1" vertex="1">
          <mxGeometry x="1274" y="1470" width="806" height="330" as="geometry" />
        </mxCell>
        <mxCell id="OjcOxmT1LdW2MqjVC4tX-85" value="&lt;b&gt;adapters&lt;/b&gt;" style="shape=umlFrame;whiteSpace=wrap;html=1;pointerEvents=0;width=100;height=30;fillColor=#d5e8d4;strokeColor=#82b366;" parent="1" vertex="1">
          <mxGeometry x="1300" y="1520" width="750" height="250" as="geometry" />
        </mxCell>
        <mxCell id="OjcOxmT1LdW2MqjVC4tX-86" value="&lt;b&gt;http&lt;/b&gt;" style="shape=umlFrame;whiteSpace=wrap;html=1;pointerEvents=0;width=100;height=30;fillColor=#d5e8d4;strokeColor=#82b366;" parent="1" vertex="1">
          <mxGeometry x="1315" y="1565" width="475" height="190" as="geometry" />
        </mxCell>
        <mxCell id="OjcOxmT1LdW2MqjVC4tX-87" value="&lt;b&gt;repositories&lt;/b&gt;" style="shape=umlFrame;whiteSpace=wrap;html=1;pointerEvents=0;width=100;height=30;fillColor=#d5e8d4;strokeColor=#82b366;" parent="1" vertex="1">
          <mxGeometry x="1820" y="1565" width="210" height="130" as="geometry" />
        </mxCell>
        <mxCell id="OjcOxmT1LdW2MqjVC4tX-88" value="OrderRepository" style="html=1;dropTarget=0;whiteSpace=wrap;fillColor=none;strokeColor=default;" parent="1" vertex="1">
          <mxGeometry x="1835" y="1615" width="180" height="60" as="geometry" />
        </mxCell>
        <mxCell id="OjcOxmT1LdW2MqjVC4tX-89" value="" style="shape=module;jettyWidth=8;jettyHeight=4;" parent="OjcOxmT1LdW2MqjVC4tX-88" vertex="1">
          <mxGeometry x="1" width="20" height="20" relative="1" as="geometry">
            <mxPoint x="-27" y="7" as="offset" />
          </mxGeometry>
        </mxCell>
        <mxCell id="OjcOxmT1LdW2MqjVC4tX-90" value="&lt;b&gt;controllers&lt;/b&gt;" style="shape=umlFrame;whiteSpace=wrap;html=1;pointerEvents=0;width=100;height=30;fillColor=#d5e8d4;strokeColor=#82b366;" parent="1" vertex="1">
          <mxGeometry x="1330" y="1610" width="210" height="130" as="geometry" />
        </mxCell>
        <mxCell id="OjcOxmT1LdW2MqjVC4tX-91" value="OrdersController" style="html=1;dropTarget=0;whiteSpace=wrap;fillColor=none;strokeColor=default;" parent="1" vertex="1">
          <mxGeometry x="1345" y="1660" width="180" height="60" as="geometry" />
        </mxCell>
        <mxCell id="OjcOxmT1LdW2MqjVC4tX-92" value="" style="shape=module;jettyWidth=8;jettyHeight=4;" parent="OjcOxmT1LdW2MqjVC4tX-91" vertex="1">
          <mxGeometry x="1" width="20" height="20" relative="1" as="geometry">
            <mxPoint x="-27" y="7" as="offset" />
          </mxGeometry>
        </mxCell>
        <mxCell id="OjcOxmT1LdW2MqjVC4tX-93" value="&lt;b&gt;routes&lt;/b&gt;" style="shape=umlFrame;whiteSpace=wrap;html=1;pointerEvents=0;width=100;height=30;fillColor=#d5e8d4;strokeColor=#82b366;" parent="1" vertex="1">
          <mxGeometry x="1560" y="1610" width="210" height="130" as="geometry" />
        </mxCell>
        <mxCell id="OjcOxmT1LdW2MqjVC4tX-94" value="OrdersRoutes" style="html=1;dropTarget=0;whiteSpace=wrap;fillColor=none;strokeColor=default;" parent="1" vertex="1">
          <mxGeometry x="1575" y="1660" width="180" height="60" as="geometry" />
        </mxCell>
        <mxCell id="OjcOxmT1LdW2MqjVC4tX-95" value="" style="shape=module;jettyWidth=8;jettyHeight=4;" parent="OjcOxmT1LdW2MqjVC4tX-94" vertex="1">
          <mxGeometry x="1" width="20" height="20" relative="1" as="geometry">
            <mxPoint x="-27" y="7" as="offset" />
          </mxGeometry>
        </mxCell>
        <mxCell id="OjcOxmT1LdW2MqjVC4tX-96" value="&lt;b&gt;presentation&lt;/b&gt;" style="shape=umlFrame;whiteSpace=wrap;html=1;pointerEvents=0;width=96;height=30;fillColor=#d5e8d4;strokeColor=#82b366;" parent="1" vertex="1">
          <mxGeometry x="2110" y="1470" width="250" height="200" as="geometry" />
        </mxCell>
        <mxCell id="OjcOxmT1LdW2MqjVC4tX-97" value="&lt;b&gt;dto&lt;/b&gt;" style="shape=umlFrame;whiteSpace=wrap;html=1;pointerEvents=0;width=100;height=30;fillColor=#d5e8d4;strokeColor=#82b366;" parent="1" vertex="1">
          <mxGeometry x="2130" y="1520" width="210" height="130" as="geometry" />
        </mxCell>
        <mxCell id="OjcOxmT1LdW2MqjVC4tX-98" value="OrderDto" style="html=1;dropTarget=0;whiteSpace=wrap;fillColor=none;strokeColor=default;" parent="1" vertex="1">
          <mxGeometry x="2145" y="1565" width="180" height="60" as="geometry" />
        </mxCell>
        <mxCell id="OjcOxmT1LdW2MqjVC4tX-99" value="" style="shape=module;jettyWidth=8;jettyHeight=4;" parent="OjcOxmT1LdW2MqjVC4tX-98" vertex="1">
          <mxGeometry x="1" width="20" height="20" relative="1" as="geometry">
            <mxPoint x="-27" y="7" as="offset" />
          </mxGeometry>
        </mxCell>
        <mxCell id="OjcOxmT1LdW2MqjVC4tX-100" value="OrderNumber" style="html=1;dropTarget=0;whiteSpace=wrap;fillColor=none;strokeColor=default;" parent="1" vertex="1">
          <mxGeometry x="2125" y="1260" width="180" height="60" as="geometry" />
        </mxCell>
        <mxCell id="OjcOxmT1LdW2MqjVC4tX-101" value="" style="shape=module;jettyWidth=8;jettyHeight=4;" parent="OjcOxmT1LdW2MqjVC4tX-100" vertex="1">
          <mxGeometry x="1" width="20" height="20" relative="1" as="geometry">
            <mxPoint x="-27" y="7" as="offset" />
          </mxGeometry>
        </mxCell>
        <mxCell id="OjcOxmT1LdW2MqjVC4tX-102" value="TaxRate" style="html=1;dropTarget=0;whiteSpace=wrap;fillColor=none;strokeColor=default;" parent="1" vertex="1">
          <mxGeometry x="2125" y="1340" width="180" height="60" as="geometry" />
        </mxCell>
        <mxCell id="OjcOxmT1LdW2MqjVC4tX-103" value="" style="shape=module;jettyWidth=8;jettyHeight=4;" parent="OjcOxmT1LdW2MqjVC4tX-102" vertex="1">
          <mxGeometry x="1" width="20" height="20" relative="1" as="geometry">
            <mxPoint x="-27" y="7" as="offset" />
          </mxGeometry>
        </mxCell>
        <mxCell id="OjcOxmT1LdW2MqjVC4tX-104" value="&lt;b&gt;shared-kernel&lt;/b&gt;" style="shape=umlFrame;whiteSpace=wrap;html=1;pointerEvents=0;width=110;height=30;fillColor=#e1d5e7;strokeColor=#9673a6;" parent="1" vertex="1">
          <mxGeometry x="1250" y="320" width="530" height="530" as="geometry" />
        </mxCell>
        <mxCell id="OjcOxmT1LdW2MqjVC4tX-105" value="&lt;b&gt;value-objects&lt;/b&gt;" style="shape=umlFrame;whiteSpace=wrap;html=1;pointerEvents=0;width=100;height=30;fillColor=#e1d5e7;strokeColor=#9673a6;" parent="1" vertex="1">
          <mxGeometry x="1274" y="370" width="210" height="450" as="geometry" />
        </mxCell>
        <mxCell id="OjcOxmT1LdW2MqjVC4tX-106" value="Currency" style="html=1;dropTarget=0;whiteSpace=wrap;fillColor=none;strokeColor=default;" parent="1" vertex="1">
          <mxGeometry x="1289" y="420" width="180" height="60" as="geometry" />
        </mxCell>
        <mxCell id="OjcOxmT1LdW2MqjVC4tX-107" value="" style="shape=module;jettyWidth=8;jettyHeight=4;" parent="OjcOxmT1LdW2MqjVC4tX-106" vertex="1">
          <mxGeometry x="1" width="20" height="20" relative="1" as="geometry">
            <mxPoint x="-27" y="7" as="offset" />
          </mxGeometry>
        </mxCell>
        <mxCell id="OjcOxmT1LdW2MqjVC4tX-108" value="Money" style="html=1;dropTarget=0;whiteSpace=wrap;fillColor=none;strokeColor=default;" parent="1" vertex="1">
          <mxGeometry x="1289" y="500" width="180" height="60" as="geometry" />
        </mxCell>
        <mxCell id="OjcOxmT1LdW2MqjVC4tX-109" value="" style="shape=module;jettyWidth=8;jettyHeight=4;" parent="OjcOxmT1LdW2MqjVC4tX-108" vertex="1">
          <mxGeometry x="1" width="20" height="20" relative="1" as="geometry">
            <mxPoint x="-27" y="7" as="offset" />
          </mxGeometry>
        </mxCell>
        <mxCell id="OjcOxmT1LdW2MqjVC4tX-110" value="Percentage" style="html=1;dropTarget=0;whiteSpace=wrap;fillColor=none;strokeColor=default;" parent="1" vertex="1">
          <mxGeometry x="1289" y="580" width="180" height="60" as="geometry" />
        </mxCell>
        <mxCell id="OjcOxmT1LdW2MqjVC4tX-111" value="" style="shape=module;jettyWidth=8;jettyHeight=4;" parent="OjcOxmT1LdW2MqjVC4tX-110" vertex="1">
          <mxGeometry x="1" width="20" height="20" relative="1" as="geometry">
            <mxPoint x="-27" y="7" as="offset" />
          </mxGeometry>
        </mxCell>
        <mxCell id="OjcOxmT1LdW2MqjVC4tX-112" value="PositiveInt" style="html=1;dropTarget=0;whiteSpace=wrap;fillColor=none;strokeColor=default;" parent="1" vertex="1">
          <mxGeometry x="1289" y="660" width="180" height="60" as="geometry" />
        </mxCell>
        <mxCell id="OjcOxmT1LdW2MqjVC4tX-113" value="" style="shape=module;jettyWidth=8;jettyHeight=4;" parent="OjcOxmT1LdW2MqjVC4tX-112" vertex="1">
          <mxGeometry x="1" width="20" height="20" relative="1" as="geometry">
            <mxPoint x="-27" y="7" as="offset" />
          </mxGeometry>
        </mxCell>
        <mxCell id="OjcOxmT1LdW2MqjVC4tX-114" value="Uuid" style="html=1;dropTarget=0;whiteSpace=wrap;fillColor=none;strokeColor=default;" parent="1" vertex="1">
          <mxGeometry x="1289" y="740" width="180" height="60" as="geometry" />
        </mxCell>
        <mxCell id="OjcOxmT1LdW2MqjVC4tX-115" value="" style="shape=module;jettyWidth=8;jettyHeight=4;" parent="OjcOxmT1LdW2MqjVC4tX-114" vertex="1">
          <mxGeometry x="1" width="20" height="20" relative="1" as="geometry">
            <mxPoint x="-27" y="7" as="offset" />
          </mxGeometry>
        </mxCell>
        <mxCell id="OjcOxmT1LdW2MqjVC4tX-116" value="&lt;b&gt;errors&lt;/b&gt;" style="shape=umlFrame;whiteSpace=wrap;html=1;pointerEvents=0;width=100;height=30;fillColor=#e1d5e7;strokeColor=#9673a6;" parent="1" vertex="1">
          <mxGeometry x="1540" y="370" width="210" height="130" as="geometry" />
        </mxCell>
        <mxCell id="OjcOxmT1LdW2MqjVC4tX-117" value="DomainError" style="html=1;dropTarget=0;whiteSpace=wrap;fillColor=none;strokeColor=default;" parent="1" vertex="1">
          <mxGeometry x="1555" y="420" width="180" height="60" as="geometry" />
        </mxCell>
        <mxCell id="OjcOxmT1LdW2MqjVC4tX-118" value="" style="shape=module;jettyWidth=8;jettyHeight=4;" parent="OjcOxmT1LdW2MqjVC4tX-117" vertex="1">
          <mxGeometry x="1" width="20" height="20" relative="1" as="geometry">
            <mxPoint x="-27" y="7" as="offset" />
          </mxGeometry>
        </mxCell>
        <mxCell id="OjcOxmT1LdW2MqjVC4tX-119" value="&lt;b&gt;infrastructure&lt;/b&gt;" style="shape=umlFrame;whiteSpace=wrap;html=1;pointerEvents=0;width=110;height=30;fillColor=#f8cecc;strokeColor=#b85450;" parent="1" vertex="1">
          <mxGeometry x="1860" y="320" width="530" height="600" as="geometry" />
        </mxCell>
        <mxCell id="OjcOxmT1LdW2MqjVC4tX-120" value="&lt;b&gt;drivers&lt;/b&gt;" style="shape=umlFrame;whiteSpace=wrap;html=1;pointerEvents=0;width=100;height=30;fillColor=#f8cecc;strokeColor=#b85450;" parent="1" vertex="1">
          <mxGeometry x="1884" y="370" width="210" height="130" as="geometry" />
        </mxCell>
        <mxCell id="OjcOxmT1LdW2MqjVC4tX-121" value="Express" style="html=1;dropTarget=0;whiteSpace=wrap;fillColor=none;strokeColor=default;" parent="1" vertex="1">
          <mxGeometry x="1899" y="420" width="180" height="60" as="geometry" />
        </mxCell>
        <mxCell id="OjcOxmT1LdW2MqjVC4tX-122" value="" style="shape=module;jettyWidth=8;jettyHeight=4;" parent="OjcOxmT1LdW2MqjVC4tX-121" vertex="1">
          <mxGeometry x="1" width="20" height="20" relative="1" as="geometry">
            <mxPoint x="-27" y="7" as="offset" />
          </mxGeometry>
        </mxCell>
        <mxCell id="OjcOxmT1LdW2MqjVC4tX-134" value="&lt;b&gt;shared&lt;/b&gt;" style="shape=umlFrame;whiteSpace=wrap;html=1;pointerEvents=0;width=100;height=30;fillColor=#f8cecc;strokeColor=#b85450;" parent="1" vertex="1">
          <mxGeometry x="2150" y="370" width="210" height="130" as="geometry" />
        </mxCell>
        <mxCell id="OjcOxmT1LdW2MqjVC4tX-135" value="Logger" style="html=1;dropTarget=0;whiteSpace=wrap;fillColor=none;strokeColor=default;" parent="1" vertex="1">
          <mxGeometry x="2165" y="420" width="180" height="60" as="geometry" />
        </mxCell>
        <mxCell id="OjcOxmT1LdW2MqjVC4tX-136" value="" style="shape=module;jettyWidth=8;jettyHeight=4;" parent="OjcOxmT1LdW2MqjVC4tX-135" vertex="1">
          <mxGeometry x="1" width="20" height="20" relative="1" as="geometry">
            <mxPoint x="-27" y="7" as="offset" />
          </mxGeometry>
        </mxCell>
        <mxCell id="OjcOxmT1LdW2MqjVC4tX-137" value="&lt;b&gt;memory&lt;/b&gt;" style="shape=umlFrame;whiteSpace=wrap;html=1;pointerEvents=0;width=100;height=30;fillColor=#f8cecc;strokeColor=#b85450;" parent="1" vertex="1">
          <mxGeometry x="1884" y="530" width="236" height="290" as="geometry" />
        </mxCell>
        <mxCell id="OjcOxmT1LdW2MqjVC4tX-138" value="ProductRepositoryInMemory" style="html=1;dropTarget=0;whiteSpace=wrap;fillColor=none;strokeColor=default;" parent="1" vertex="1">
          <mxGeometry x="1899" y="580" width="201" height="60" as="geometry" />
        </mxCell>
        <mxCell id="OjcOxmT1LdW2MqjVC4tX-139" value="" style="shape=module;jettyWidth=8;jettyHeight=4;" parent="OjcOxmT1LdW2MqjVC4tX-138" vertex="1">
          <mxGeometry x="1" width="20" height="20" relative="1" as="geometry">
            <mxPoint x="-27" y="7" as="offset" />
          </mxGeometry>
        </mxCell>
        <mxCell id="OjcOxmT1LdW2MqjVC4tX-140" value="CartRepositoryInMemory" style="html=1;dropTarget=0;whiteSpace=wrap;fillColor=none;strokeColor=default;" parent="1" vertex="1">
          <mxGeometry x="1899" y="660" width="201" height="60" as="geometry" />
        </mxCell>
        <mxCell id="OjcOxmT1LdW2MqjVC4tX-141" value="" style="shape=module;jettyWidth=8;jettyHeight=4;" parent="OjcOxmT1LdW2MqjVC4tX-140" vertex="1">
          <mxGeometry x="1" width="20" height="20" relative="1" as="geometry">
            <mxPoint x="-27" y="7" as="offset" />
          </mxGeometry>
        </mxCell>
        <mxCell id="OjcOxmT1LdW2MqjVC4tX-142" value="OrderRepositoryInMemory" style="html=1;dropTarget=0;whiteSpace=wrap;fillColor=none;strokeColor=default;" parent="1" vertex="1">
          <mxGeometry x="1901.5" y="740" width="198.5" height="60" as="geometry" />
        </mxCell>
        <mxCell id="OjcOxmT1LdW2MqjVC4tX-143" value="" style="shape=module;jettyWidth=8;jettyHeight=4;" parent="OjcOxmT1LdW2MqjVC4tX-142" vertex="1">
          <mxGeometry x="1" width="20" height="20" relative="1" as="geometry">
            <mxPoint x="-27" y="7" as="offset" />
          </mxGeometry>
        </mxCell>
        <mxCell id="kOIpZxwY2BywyUnKMyju-1" value="&lt;b&gt;sqlite&lt;/b&gt;" style="shape=umlFrame;whiteSpace=wrap;html=1;pointerEvents=0;width=100;height=30;fillColor=#f8cecc;strokeColor=#b85450;" vertex="1" parent="1">
          <mxGeometry x="2137" y="530" width="236" height="370" as="geometry" />
        </mxCell>
        <mxCell id="kOIpZxwY2BywyUnKMyju-2" value="ProductRepositorySqlite" style="html=1;dropTarget=0;whiteSpace=wrap;fillColor=none;strokeColor=default;" vertex="1" parent="1">
          <mxGeometry x="2154.5" y="580" width="201" height="60" as="geometry" />
        </mxCell>
        <mxCell id="kOIpZxwY2BywyUnKMyju-3" value="" style="shape=module;jettyWidth=8;jettyHeight=4;" vertex="1" parent="kOIpZxwY2BywyUnKMyju-2">
          <mxGeometry x="1" width="20" height="20" relative="1" as="geometry">
            <mxPoint x="-27" y="7" as="offset" />
          </mxGeometry>
        </mxCell>
        <mxCell id="kOIpZxwY2BywyUnKMyju-4" value="CartRepositorySqlite" style="html=1;dropTarget=0;whiteSpace=wrap;fillColor=none;strokeColor=default;" vertex="1" parent="1">
          <mxGeometry x="2154.5" y="660" width="201" height="60" as="geometry" />
        </mxCell>
        <mxCell id="kOIpZxwY2BywyUnKMyju-5" value="" style="shape=module;jettyWidth=8;jettyHeight=4;" vertex="1" parent="kOIpZxwY2BywyUnKMyju-4">
          <mxGeometry x="1" width="20" height="20" relative="1" as="geometry">
            <mxPoint x="-27" y="7" as="offset" />
          </mxGeometry>
        </mxCell>
        <mxCell id="kOIpZxwY2BywyUnKMyju-6" value="OrderRepositoryISqlite" style="html=1;dropTarget=0;whiteSpace=wrap;fillColor=none;strokeColor=default;" vertex="1" parent="1">
          <mxGeometry x="2154.5" y="740" width="198.5" height="60" as="geometry" />
        </mxCell>
        <mxCell id="kOIpZxwY2BywyUnKMyju-7" value="" style="shape=module;jettyWidth=8;jettyHeight=4;" vertex="1" parent="kOIpZxwY2BywyUnKMyju-6">
          <mxGeometry x="1" width="20" height="20" relative="1" as="geometry">
            <mxPoint x="-27" y="7" as="offset" />
          </mxGeometry>
        </mxCell>
        <mxCell id="kOIpZxwY2BywyUnKMyju-8" value="Db" style="html=1;dropTarget=0;whiteSpace=wrap;fillColor=none;strokeColor=default;" vertex="1" parent="1">
          <mxGeometry x="2155.75" y="820" width="198.5" height="60" as="geometry" />
        </mxCell>
        <mxCell id="kOIpZxwY2BywyUnKMyju-9" value="" style="shape=module;jettyWidth=8;jettyHeight=4;" vertex="1" parent="kOIpZxwY2BywyUnKMyju-8">
          <mxGeometry x="1" width="20" height="20" relative="1" as="geometry">
            <mxPoint x="-27" y="7" as="offset" />
          </mxGeometry>
        </mxCell>
      </root>
    </mxGraphModel>
  </diagram>
</mxfile>
